<svg width="32" height="32" viewBox="0 0 32 32" fill="none" xmlns="http://www.w3.org/2000/svg">
  <defs>
    <linearGradient id="leafGradient" x1="0%" y1="0%" x2="100%" y2="100%">
      <stop offset="0%" style="stop-color:#22c55e;stop-opacity:1" />
      <stop offset="100%" style="stop-color:#16a34a;stop-opacity:1" />
    </linearGradient>
    <linearGradient id="heartGradient" x1="0%" y1="0%" x2="100%" y2="100%">
      <stop offset="0%" style="stop-color:#f59e0b;stop-opacity:1" />
      <stop offset="100%" style="stop-color:#d97706;stop-opacity:1" />
    </linearGradient>
  </defs>
  
  <!-- Background circle -->
  <circle cx="16" cy="16" r="15" fill="#f8fafc" stroke="#e2e8f0" stroke-width="2"/>
  
  <!-- Leaf (representing fresh food/sustainability) -->
  <path d="M12 8c-3 0-5 2-5 5 0 2 1 3.5 2.5 4.5C11 19 13 20 16 20c0-3-1-5-2.5-6.5C12 12 12 10 12 8z" fill="url(#leafGradient)"/>
  
  <!-- Heart (representing care/sharing) -->
  <path d="M20.5 10c-1.5-1.5-4-1.5-5.5 0l-1 1-1-1c-1.5-1.5-4-1.5-5.5 0-1.5 1.5-1.5 4 0 5.5l6.5 6.5 6.5-6.5c1.5-1.5 1.5-4 0-5.5z" fill="url(#heartGradient)" transform="translate(6,4) scale(0.7)"/>
  
  <!-- Small dots representing food items -->
  <circle cx="22" cy="12" r="1.5" fill="#22c55e" opacity="0.8"/>
  <circle cx="24" cy="16" r="1" fill="#f59e0b" opacity="0.8"/>
  <circle cx="21" cy="20" r="1.2" fill="#ef4444" opacity="0.8"/>
</svg>
